<?xml version="1.0" standalone="no"?>
<!DOCTYPE svg PUBLIC "-//W3C//DTD SVG 20010904//EN"
 "http://www.w3.org/TR/2001/REC-SVG-20010904/DTD/svg10.dtd">
<svg version="1.0" xmlns="http://www.w3.org/2000/svg"
 width="1024.000000pt" height="1536.000000pt" viewBox="0 0 1024.000000 1536.000000"
 preserveAspectRatio="xMidYMid meet">
<metadata>
Created by potrace 1.16, written by Peter Selinger 2001-2019
</metadata>
<g transform="translate(0.000000,1536.000000) scale(0.100000,-0.100000)"
fill="#000000" stroke="none">
<path d="M4948 14815 c-2 -2 -21 -6 -43 -9 -99 -16 -238 -63 -345 -116 -156
-79 -309 -208 -419 -355 -96 -127 -203 -373 -225 -515 -3 -19 -8 -46 -11 -60
-7 -29 -7 -222 0 -328 9 -136 67 -319 161 -503 73 -145 147 -239 249 -317 55
-43 77 -68 105 -121 53 -101 101 -161 204 -255 51 -47 93 -91 94 -98 0 -7 4
-42 9 -78 4 -36 7 -113 7 -172 l-1 -107 -37 -45 c-50 -62 -173 -152 -284 -209
-99 -51 -102 -52 -184 -61 -172 -19 -256 -57 -372 -165 -65 -61 -160 -274
-182 -411 -4 -19 -8 -46 -11 -60 -3 -14 -6 -133 -8 -265 -1 -132 -5 -251 -9
-265 -3 -13 -8 -40 -11 -60 -3 -20 -7 -47 -10 -60 -3 -13 -7 -40 -10 -60 -3
-20 -7 -47 -10 -60 -3 -13 -7 -40 -10 -60 -3 -20 -7 -47 -10 -60 -3 -13 -7
-40 -10 -60 -3 -20 -7 -47 -10 -60 -3 -13 -7 -42 -10 -65 -3 -22 -8 -47 -10
-55 -4 -14 -8 -39 -20 -112 -3 -18 -8 -44 -10 -58 -12 -59 -15 -77 -20 -105
-29 -166 -47 -220 -170 -485 -71 -153 -128 -308 -144 -391 -6 -30 -13 -65 -15
-79 -7 -33 -18 -101 -32 -205 -14 -106 -18 -143 -29 -246 -7 -69 -20 -168 -40
-319 -10 -73 -14 -96 -19 -127 -3 -18 -8 -45 -11 -60 -6 -42 -14 -86 -19 -108
-9 -46 -47 -186 -56 -210 -11 -28 -16 -70 -25 -205 -3 -47 -8 -98 -9 -115 -9
-76 -17 -142 -21 -165 -2 -14 -6 -43 -10 -65 -3 -23 -7 -52 -10 -65 -3 -13 -7
-40 -10 -60 -3 -20 -8 -47 -10 -60 -3 -14 -7 -36 -10 -50 -3 -14 -7 -36 -10
-50 -18 -75 -16 -128 4 -194 29 -93 39 -157 56 -345 3 -41 12 -62 38 -95 19
-22 50 -66 70 -96 83 -124 305 -350 343 -350 8 0 26 12 41 26 23 23 25 30 20
85 -6 61 -6 63 38 60 60 -3 57 57 -6 134 l-41 49 27 22 c40 32 30 54 -75 169
-87 97 -142 185 -156 250 -11 54 -12 126 -2 168 5 23 11 49 13 57 16 77 41
130 61 130 8 0 42 -86 48 -122 40 -240 108 -353 224 -371 26 -4 36 0 53 21 18
23 20 36 16 90 -3 34 -8 66 -12 71 -3 5 -7 31 -10 58 -7 82 -16 125 -36 177
-14 34 -21 83 -25 160 -2 61 -6 127 -8 146 -6 54 -63 190 -127 300 l-57 100 3
87 c2 49 6 99 9 113 3 14 8 35 10 47 38 189 123 420 273 743 153 327 185 417
218 603 18 98 22 128 30 227 10 120 21 211 29 237 3 10 7 29 10 43 2 14 30
126 61 250 31 124 58 232 60 240 2 8 17 67 34 130 17 63 33 131 36 150 9 58
26 100 39 100 7 0 28 -54 50 -132 20 -72 59 -192 87 -268 72 -200 92 -275 106
-410 18 -178 7 -237 -102 -525 -95 -252 -163 -476 -190 -622 -2 -15 -7 -39
-10 -53 -3 -14 -8 -40 -11 -59 -3 -18 -8 -43 -10 -55 -2 -11 -6 -37 -9 -56 -3
-19 -7 -46 -10 -60 -3 -14 -7 -43 -10 -65 -3 -22 -7 -56 -10 -75 -11 -81 -19
-152 -32 -275 -10 -100 -9 -727 1 -855 7 -98 9 -109 21 -220 12 -104 13 -113
19 -160 3 -25 8 -63 11 -85 7 -53 15 -114 20 -145 2 -14 7 -45 10 -70 3 -25 8
-56 10 -70 2 -14 7 -47 10 -75 4 -27 8 -61 10 -75 14 -92 20 -183 20 -305 0
-144 -11 -361 -20 -405 -3 -14 -12 -59 -20 -100 -19 -101 -23 -119 -29 -138
-3 -9 -8 -30 -11 -47 -2 -16 -7 -41 -10 -55 -3 -14 -7 -36 -10 -50 -3 -14 -7
-36 -10 -50 -6 -29 -16 -85 -21 -120 -1 -14 -7 -50 -11 -80 -15 -106 -8 -458
11 -556 2 -12 7 -45 11 -74 4 -29 9 -62 11 -74 2 -11 6 -36 9 -56 3 -20 8 -47
10 -60 3 -14 7 -43 10 -65 3 -22 7 -51 10 -65 3 -14 7 -41 10 -60 3 -19 7 -51
10 -70 3 -19 7 -53 10 -75 3 -22 7 -56 10 -75 2 -19 7 -64 11 -100 3 -36 8
-78 10 -95 19 -163 24 -430 11 -570 -13 -146 -20 -182 -53 -286 -18 -58 -26
-104 -26 -163 -1 -81 -1 -82 -78 -236 -119 -237 -281 -468 -365 -520 -19 -12
-37 -30 -40 -40 -3 -11 -31 -41 -61 -67 -63 -53 -104 -125 -104 -180 1 -57 32
-117 68 -132 17 -7 38 -23 46 -36 9 -13 26 -27 38 -31 13 -4 36 -17 51 -30 15
-13 44 -26 65 -29 20 -3 61 -17 90 -30 65 -31 122 -32 173 -3 l39 22 28 -22
c73 -60 160 -75 236 -43 107 46 162 115 169 210 3 39 11 58 35 86 56 63 62 83
57 186 -3 52 -7 111 -9 131 -4 33 -1 39 32 64 90 66 146 132 158 187 13 59
-17 234 -64 369 -9 27 -8 68 4 118 13 54 9 129 -10 200 -24 88 -31 125 -42
200 -26 192 -26 574 0 795 8 70 17 142 21 165 2 14 6 45 9 69 8 55 20 130 31
181 3 14 8 39 11 55 3 17 7 35 8 40 1 6 6 26 10 45 8 39 21 98 36 163 5 23 12
56 15 72 3 17 7 40 9 51 31 155 34 320 11 589 -27 314 -28 299 20 525 11 56
23 145 30 236 12 154 26 294 50 474 3 25 8 63 11 85 3 22 7 51 9 65 2 14 7 48
11 75 3 28 7 59 9 70 2 11 6 45 10 75 4 30 8 64 10 75 2 11 6 43 9 70 4 28 9
61 11 75 2 14 7 45 10 70 3 25 7 61 10 80 10 70 24 176 31 235 20 181 30 276
39 375 2 19 6 69 10 110 4 41 8 84 9 95 2 30 13 42 35 40 26 -2 35 -11 37 -38
6 -93 20 -251 29 -342 2 -28 7 -78 10 -111 3 -32 7 -79 10 -104 3 -25 7 -67
10 -95 5 -53 11 -109 20 -185 2 -25 8 -72 11 -105 6 -63 7 -72 19 -170 4 -33
9 -71 10 -85 1 -14 6 -52 10 -85 4 -33 8 -71 10 -85 2 -14 6 -54 10 -90 4 -36
8 -76 10 -90 2 -14 6 -50 9 -80 3 -30 8 -75 11 -100 8 -71 15 -149 21 -235 11
-168 24 -267 44 -345 29 -113 31 -243 5 -455 -16 -138 -19 -187 -19 -305 0
-119 5 -200 19 -281 2 -13 6 -42 10 -64 3 -22 7 -47 10 -55 2 -8 6 -31 9 -50
3 -19 8 -46 11 -60 3 -14 7 -36 10 -50 3 -14 7 -35 9 -46 2 -12 7 -37 10 -55
3 -19 8 -45 11 -59 2 -13 7 -42 10 -65 4 -22 8 -51 10 -65 3 -14 7 -45 10 -70
3 -25 7 -61 10 -80 14 -101 20 -263 20 -505 0 -314 -10 -458 -39 -553 -3 -9
-8 -30 -11 -47 -3 -16 -14 -62 -24 -102 -10 -40 -17 -74 -15 -76 2 -2 6 -21
10 -42 3 -21 9 -48 13 -59 10 -29 8 -44 -29 -186 -42 -164 -41 -156 -41 -225
-1 -48 4 -70 26 -107 25 -45 74 -91 122 -116 47 -25 52 -38 47 -114 -12 -171
-3 -208 68 -276 30 -28 34 -39 36 -87 1 -65 18 -101 68 -145 93 -81 206 -102
301 -55 28 15 57 32 63 40 10 12 18 11 53 -7 52 -27 84 -25 149 8 28 14 63 28
77 30 14 3 43 17 65 32 21 14 45 27 53 28 11 2 142 125 144 136 20 121 -2 159
-210 361 -133 129 -240 287 -377 557 -59 117 -68 141 -65 180 5 69 5 70 -22
160 -28 94 -34 122 -45 225 -13 129 -7 442 12 610 2 17 7 55 10 85 3 30 8 71
11 90 3 19 7 53 10 75 8 60 16 117 21 148 11 72 15 93 19 107 2 8 7 35 10 60
3 25 8 52 10 60 2 8 7 30 10 48 7 44 14 82 20 112 2 13 7 40 10 60 3 20 8 47
10 60 6 28 14 94 20 155 5 50 6 401 1 435 -2 14 -7 46 -10 70 -3 25 -8 55 -10
66 -2 12 -7 37 -10 55 -3 19 -8 45 -11 59 -3 14 -7 36 -10 50 -3 14 -7 36 -10
50 -3 14 -13 59 -21 100 -9 41 -17 84 -20 95 -2 11 -6 31 -9 45 -7 33 -19 309
-20 430 0 85 5 152 20 260 3 19 7 53 10 75 9 69 25 192 30 220 2 11 6 43 9 70
4 28 9 61 11 75 2 14 7 45 10 70 3 25 7 61 10 80 5 33 8 63 19 165 4 37 13
147 21 255 5 66 5 880 0 915 -2 17 -7 55 -10 85 -4 30 -8 66 -10 80 -1 14 -6
49 -10 79 -4 30 -9 63 -11 75 -2 12 -6 39 -9 61 -5 38 -8 59 -20 115 -2 14 -7
39 -10 55 -6 35 -13 72 -19 100 -3 11 -11 49 -19 85 -27 122 -46 185 -130 430
-45 135 -89 268 -96 296 -14 60 -8 261 13 354 1 8 6 33 11 55 4 22 36 119 71
215 59 166 97 287 124 392 14 52 34 68 50 38 6 -11 9 -20 6 -20 -2 0 0 -16 6
-36 10 -38 16 -62 24 -104 4 -19 48 -190 79 -310 23 -87 57 -220 61 -237 2
-12 9 -34 14 -48 5 -14 8 -25 5 -25 -2 0 0 -14 5 -32 16 -54 25 -120 35 -258
11 -144 22 -260 31 -303 2 -11 6 -39 9 -62 17 -117 60 -231 205 -550 131 -287
179 -416 230 -610 33 -127 40 -174 45 -285 3 -83 3 -87 -32 -140 -74 -116
-150 -290 -159 -360 -1 -14 -5 -77 -8 -141 -3 -82 -11 -131 -25 -166 -22 -57
-33 -117 -46 -253 -3 -36 -8 -72 -11 -81 -6 -22 41 -59 76 -59 76 0 181 142
203 275 30 176 73 244 98 153 19 -74 20 -81 25 -174 4 -89 3 -94 -32 -162 -20
-41 -65 -104 -106 -149 -66 -73 -118 -157 -118 -194 0 -9 9 -24 21 -34 19 -18
21 -18 52 -2 18 10 60 42 94 72 62 56 77 63 88 45 14 -23 -55 -98 -135 -145
-63 -37 -85 -56 -101 -87 -29 -57 -20 -86 29 -90 40 -3 42 -8 31 -71 -14 -83
64 -117 124 -54 113 119 336 422 344 467 4 21 12 77 18 125 3 22 8 58 11 80 3
22 16 78 30 124 32 104 33 155 9 281 -8 39 -19 112 -29 185 -14 100 -17 123
-22 175 -3 30 -8 69 -10 85 -2 17 -6 77 -9 135 -6 115 -10 145 -26 205 -11 41
-46 200 -54 245 -2 14 -7 41 -10 60 -3 19 -8 49 -11 65 -3 17 -7 44 -9 60 -3
17 -7 46 -9 65 -11 74 -15 106 -20 145 -3 22 -8 60 -11 84 -5 41 -8 71 -20
189 -13 136 -16 160 -20 192 -2 19 -7 58 -10 86 -3 28 -8 61 -10 74 -3 13 -7
42 -10 65 -3 22 -8 48 -11 57 -3 9 -7 25 -9 35 -14 67 -61 204 -101 293 -133
300 -158 365 -175 455 -5 27 -11 61 -14 75 -8 36 -15 82 -30 170 -2 14 -7 41
-10 60 -4 19 -8 50 -11 69 -2 19 -6 46 -9 60 -2 14 -7 42 -10 61 -3 19 -8 49
-11 65 -3 17 -7 41 -9 55 -6 46 -15 106 -20 130 -3 14 -7 43 -10 65 -3 22 -8
51 -11 65 -8 41 -13 143 -18 380 -3 124 -8 236 -11 250 -3 14 -8 41 -11 60
-42 238 -151 410 -309 485 -75 36 -110 44 -260 60 -121 13 -377 170 -451 276
-29 42 -29 43 -29 188 0 221 -1 218 103 320 95 93 133 143 181 238 23 47 47
75 99 116 73 59 147 136 193 203 50 74 129 242 169 362 35 105 42 135 56 222
5 34 5 350 0 376 -2 12 -7 37 -10 55 -9 53 -13 69 -36 144 -29 92 -126 285
-182 360 -182 246 -444 413 -738 470 -36 7 -306 16 -312 10z m257 -90 c37 -3
69 -9 122 -19 88 -18 274 -104 368 -171 136 -97 298 -301 364 -459 27 -64 72
-216 87 -289 22 -114 22 -276 -1 -387 -3 -14 -7 -34 -9 -45 -25 -126 -74 -271
-126 -375 -78 -155 -170 -261 -323 -370 -42 -30 -77 -59 -77 -63 0 -5 5 -5 10
-2 24 15 19 -27 -9 -83 -23 -46 -58 -86 -153 -175 -245 -230 -287 -257 -393
-257 -64 0 -75 3 -125 37 -140 93 -367 300 -420 383 -33 52 -39 87 -14 92 10
2 -13 24 -62 59 -156 112 -254 229 -334 402 -114 245 -155 484 -127 737 12
114 44 227 97 345 85 190 267 394 443 497 131 76 305 135 432 145 33 3 62 7
63 8 4 4 119 -2 187 -10z m137 -2667 c3 -7 5 -51 6 -98 3 -202 19 -297 46
-287 8 3 34 -11 58 -32 56 -50 168 -126 232 -158 106 -54 182 -77 295 -89 160
-17 296 -118 360 -266 50 -118 70 -230 76 -426 8 -305 15 -410 30 -492 3 -19
8 -47 10 -62 3 -16 8 -43 11 -60 3 -18 7 -44 9 -58 2 -14 6 -47 10 -75 4 -27
9 -59 11 -70 2 -11 6 -38 9 -60 3 -22 7 -51 10 -65 3 -14 7 -42 10 -64 3 -21
7 -51 10 -67 3 -16 7 -42 10 -59 3 -16 7 -43 10 -60 8 -47 14 -83 20 -110 3
-14 8 -38 10 -55 11 -62 50 -165 120 -320 93 -204 134 -320 160 -448 2 -10 6
-26 9 -35 3 -9 8 -37 11 -62 3 -25 8 -56 10 -70 6 -36 15 -107 21 -167 10
-105 21 -206 30 -278 2 -22 7 -60 10 -85 3 -25 7 -56 9 -70 2 -14 7 -45 10
-70 3 -25 8 -58 11 -75 3 -16 7 -41 9 -55 6 -46 15 -106 20 -130 3 -14 8 -38
11 -55 10 -59 44 -201 58 -245 17 -55 17 -62 4 -77 -5 -7 -7 -25 -4 -40 6 -29
12 -73 21 -160 3 -29 7 -70 10 -90 3 -21 8 -60 11 -88 3 -27 7 -59 9 -70 2
-11 6 -40 9 -65 3 -25 8 -56 11 -70 3 -14 7 -41 10 -60 3 -19 7 -42 8 -50 4
-18 21 -111 22 -125 1 -5 -7 -17 -16 -25 -11 -9 -21 -36 -24 -65 -16 -126 -23
-191 -30 -280 -3 -38 -7 -77 -8 -86 -2 -8 -25 -51 -53 -95 -28 -43 -58 -93
-67 -110 -9 -17 -42 -60 -74 -96 -32 -36 -75 -86 -96 -112 -31 -38 -42 -45
-53 -35 -25 20 3 101 77 227 27 46 70 123 94 172 l44 87 6 144 c5 116 3 153
-9 188 -9 24 -19 71 -22 105 -4 40 -17 84 -40 130 -19 38 -34 79 -34 91 0 12
-7 28 -15 35 -13 11 -21 8 -51 -21 -53 -50 -80 -103 -105 -204 -48 -197 -58
-225 -80 -225 -12 0 -17 -4 -14 -11 9 -13 -43 -89 -61 -89 -8 0 -15 5 -15 10
-1 6 -2 16 -3 23 -1 6 4 33 10 60 7 26 9 47 6 47 -4 0 2 7 12 15 13 10 16 18
10 27 -14 19 -9 65 16 138 25 73 27 86 34 222 7 115 38 209 117 357 74 137 91
171 104 216 11 34 10 41 -6 55 -12 10 -19 35 -23 79 -4 35 -8 66 -10 70 -2 3
-7 27 -10 54 -4 26 -11 59 -17 73 -5 15 -14 47 -19 71 -18 77 -98 288 -176
461 -148 328 -209 488 -228 602 -3 19 -8 46 -11 60 -4 22 -8 44 -21 132 -2 18
-7 74 -9 123 -5 95 -12 176 -19 211 -2 12 -7 38 -10 59 -4 20 -8 40 -10 44 -2
3 -7 24 -10 46 -4 22 -16 74 -27 115 -11 41 -22 82 -24 90 -4 16 -73 286 -80
310 -2 8 -11 45 -19 83 -8 37 -17 71 -20 75 -2 4 -7 27 -11 52 -4 25 -8 47
-10 51 -2 3 -7 21 -10 40 -4 19 -8 39 -9 44 -1 6 -5 24 -9 40 -4 17 -10 44
-13 60 -4 17 -9 98 -11 181 -6 205 15 257 86 207 28 -19 22 -3 -12 35 -12 12
-22 32 -24 44 -2 12 -6 24 -9 27 -12 12 -75 -78 -136 -194 -144 -273 -233
-341 -450 -340 -47 1 -64 -3 -57 -10 5 -5 63 -11 129 -13 114 -4 121 -2 164
23 60 35 139 107 167 151 26 43 55 43 53 -1 -2 -30 -10 -89 -19 -135 -3 -14
-7 -38 -10 -55 -3 -16 -8 -43 -12 -60 -4 -16 -7 -32 -8 -35 -18 -93 -55 -216
-144 -467 -33 -95 -58 -173 -56 -173 3 0 1 -10 -4 -23 -5 -13 -12 -48 -16 -78
-4 -30 -9 -67 -11 -84 -7 -48 -7 -176 0 -225 9 -63 49 -198 90 -309 26 -69 33
-99 26 -112 -13 -23 -13 -32 0 -24 5 3 16 -7 24 -22 16 -32 72 -219 86 -290
14 -71 19 -93 24 -111 3 -9 7 -33 10 -52 3 -19 8 -46 11 -60 2 -13 7 -40 10
-60 3 -20 7 -45 9 -57 15 -77 33 -206 42 -303 3 -30 7 -75 9 -100 32 -335 25
-736 -20 -1140 -3 -25 -7 -66 -10 -91 -3 -25 -7 -66 -10 -90 -3 -24 -8 -62
-11 -84 -6 -50 -13 -99 -19 -145 -3 -19 -8 -53 -10 -75 -3 -22 -8 -51 -10 -65
-3 -22 -12 -78 -21 -135 -12 -82 -14 -142 -15 -380 -1 -149 1 -288 4 -310 3
-22 8 -60 11 -85 4 -25 8 -56 11 -70 3 -13 7 -42 11 -65 3 -22 10 -60 16 -85
12 -57 17 -79 23 -110 3 -14 7 -36 10 -50 45 -215 55 -566 20 -730 -2 -14 -7
-43 -10 -65 -3 -22 -7 -51 -10 -65 -2 -13 -7 -40 -10 -60 -3 -20 -7 -47 -10
-60 -3 -13 -7 -40 -10 -60 -3 -20 -7 -47 -10 -60 -3 -13 -7 -40 -10 -60 -3
-20 -7 -47 -10 -60 -5 -25 -14 -87 -20 -130 -2 -14 -6 -39 -9 -56 -3 -17 -8
-48 -11 -69 -2 -20 -7 -55 -10 -77 -4 -22 -8 -56 -10 -76 -2 -20 -8 -68 -12
-107 -16 -143 -9 -615 11 -710 9 -45 26 -113 39 -155 7 -25 11 -56 9 -70 -9
-59 -1 -83 75 -240 138 -282 207 -382 398 -580 143 -148 175 -189 181 -229 7
-42 -18 -41 -47 2 -22 33 -53 63 -101 98 -41 30 -34 15 17 -40 25 -26 50 -65
57 -87 32 -99 -2 -126 -50 -40 -33 57 -136 175 -146 166 -3 -4 15 -31 40 -60
75 -89 106 -178 78 -219 -21 -30 -46 -19 -74 32 -54 99 -64 114 -117 174 -87
100 -91 77 -6 -35 18 -24 33 -50 33 -57 0 -8 9 -29 20 -48 29 -48 32 -95 9
-118 -11 -11 -25 -19 -31 -20 -7 0 -21 -2 -31 -4 -21 -4 -77 50 -77 74 0 28
-50 120 -71 132 -11 5 -45 45 -77 87 -48 64 -58 73 -60 54 -2 -12 8 -47 22
-78 34 -73 33 -84 -4 -84 -16 0 -30 -4 -30 -10 0 -5 15 -10 34 -10 97 0 147
-137 64 -177 -54 -27 -83 -32 -123 -20 -16 4 -39 10 -50 12 -11 2 -38 25 -61
50 -37 42 -41 50 -42 105 -1 61 -23 120 -45 120 -7 0 -25 13 -40 28 -27 28
-27 28 -26 179 1 131 -2 161 -21 218 -26 78 -37 89 -35 32 3 -81 -12 -86 -72
-24 -65 68 -73 122 -39 272 1 6 6 26 10 45 11 48 25 64 42 49 8 -6 14 -20 14
-31 0 -41 17 -6 19 39 0 26 4 56 7 66 3 9 1 17 -3 17 -5 0 -22 39 -37 88 l-28
87 26 110 c25 104 32 133 42 180 5 21 14 112 19 185 4 58 4 591 0 650 -6 85
-16 195 -20 230 -3 19 -7 51 -10 70 -5 41 -15 103 -21 133 -2 12 -6 39 -10 62
-5 34 -17 94 -40 200 -8 36 -14 70 -20 104 -3 18 -8 43 -10 55 -26 131 -25
415 1 661 2 22 7 62 10 89 3 27 10 55 16 62 10 12 8 36 -6 104 -3 14 -8 41
-11 60 -3 19 -10 49 -15 65 -4 17 -11 46 -14 65 -3 19 -10 51 -15 70 -5 19
-12 85 -15 145 -6 110 -10 179 -21 290 -9 104 -22 234 -29 295 -3 25 -8 70
-11 100 -10 93 -19 170 -29 240 -7 50 -18 145 -30 260 -4 36 -8 76 -10 90 -2
14 -6 52 -9 85 -4 33 -8 80 -11 105 -3 25 -7 72 -10 105 -3 33 -7 80 -10 105
-4 41 -10 100 -20 230 -2 25 -7 87 -10 137 l-6 93 45 57 c54 69 209 394 188
393 -4 0 -38 -56 -76 -123 -73 -128 -141 -230 -173 -259 -12 -11 -43 -19 -83
-23 l-64 -5 -56 57 c-48 51 -86 109 -207 321 -44 78 -35 37 20 -91 64 -147
117 -245 158 -292 33 -37 32 -31 14 -220 -2 -22 -6 -69 -9 -105 -3 -36 -8 -85
-11 -110 -3 -25 -7 -72 -11 -105 -7 -71 -9 -90 -19 -170 -4 -33 -8 -71 -10
-85 -6 -50 -17 -135 -20 -155 -6 -42 -15 -107 -20 -147 -3 -24 -8 -54 -10 -68
-2 -14 -7 -45 -10 -70 -3 -25 -7 -61 -10 -80 -15 -106 -23 -170 -40 -310 -1
-14 -6 -50 -10 -80 -3 -30 -8 -73 -11 -95 -2 -22 -6 -60 -9 -85 -13 -115 -15
-139 -20 -205 -7 -88 -14 -155 -20 -185 -3 -13 -7 -42 -11 -64 -3 -22 -7 -43
-9 -46 -2 -4 -7 -29 -11 -56 -3 -27 -8 -52 -10 -55 -2 -3 -6 -19 -8 -35 -3
-16 -8 -40 -11 -54 -24 -120 -24 -112 -8 -128 7 -7 14 -23 14 -35 1 -12 3 -31
4 -42 20 -134 28 -577 12 -660 -4 -23 -10 -52 -12 -65 -3 -14 -8 -38 -11 -55
-3 -16 -7 -34 -8 -40 -2 -5 -6 -28 -10 -50 -4 -22 -12 -53 -16 -70 -5 -16 -11
-41 -14 -55 -6 -34 -35 -179 -41 -210 -3 -14 -8 -41 -11 -60 -3 -19 -7 -46
-10 -60 -4 -25 -13 -96 -20 -155 -14 -126 -18 -237 -18 -485 -1 -254 3 -340
19 -421 3 -13 8 -37 11 -54 3 -16 16 -75 30 -130 24 -95 25 -103 11 -150 -18
-61 -30 -107 -31 -120 -1 -5 -11 -11 -24 -13 -22 -3 -23 -4 -6 -17 12 -8 19
-28 20 -52 1 -21 3 -46 3 -57 1 -16 3 -16 20 5 l18 23 15 -25 c9 -13 19 -42
23 -64 5 -22 10 -47 12 -55 9 -38 10 -116 1 -141 -5 -15 -30 -46 -54 -69 -50
-46 -68 -44 -72 11 -2 18 -4 35 -6 37 -2 2 -14 -23 -27 -55 -24 -62 -28 -137
-14 -266 4 -38 4 -84 1 -102 -7 -36 -51 -90 -66 -80 -16 10 -31 -34 -34 -99
-1 -51 -7 -70 -28 -99 -71 -92 -231 -100 -278 -13 -11 21 -10 30 6 62 25 49
63 76 108 76 20 0 33 4 30 9 -3 5 -21 9 -40 9 -19 0 -34 3 -34 7 0 4 10 26 21
50 21 44 36 113 25 113 -4 0 -20 -22 -36 -49 -17 -27 -51 -66 -75 -86 -47 -38
-71 -74 -79 -117 -14 -80 -55 -110 -136 -99 -5 0 -18 10 -28 21 -23 25 -20 70
7 109 12 16 21 38 21 48 0 11 21 47 46 82 26 34 44 64 42 67 -11 11 -126 -127
-163 -196 -22 -41 -47 -75 -55 -75 -20 -1 -60 25 -60 38 0 32 59 154 93 193
22 25 38 47 36 49 -13 12 -93 -75 -126 -135 -37 -69 -59 -85 -81 -57 -22 28
17 117 82 186 37 40 38 43 11 26 -45 -27 -73 -55 -103 -102 -44 -71 -79 -40
-41 37 10 19 58 73 109 118 181 166 289 315 430 593 l92 180 0 85 c0 61 6 102
23 152 13 37 26 85 30 107 42 274 45 401 19 745 -8 108 -25 264 -39 355 -2 11
-6 40 -9 65 -3 25 -8 56 -11 70 -2 13 -7 40 -10 60 -3 20 -8 47 -10 60 -3 14
-7 43 -10 65 -3 22 -7 51 -10 65 -8 42 -21 127 -32 215 -16 125 -9 483 12 585
2 13 7 40 10 60 3 20 8 47 10 60 3 14 8 41 11 60 3 19 7 43 10 52 3 10 7 30
10 45 2 16 7 39 10 53 6 24 10 43 18 85 2 11 9 40 15 65 5 25 12 79 16 120 6
90 12 167 21 275 8 99 8 95 0 185 -12 131 -30 275 -51 410 -13 87 -41 293 -50
375 -19 166 -22 192 -32 310 -17 193 -9 824 12 980 2 17 7 53 10 80 3 28 8 61
10 75 1 14 6 49 10 79 4 30 9 63 11 75 2 11 6 36 9 56 3 20 7 45 9 55 2 11 13
67 25 125 23 120 91 375 116 438 10 23 22 42 29 42 6 0 30 -37 54 -83 68 -130
175 -317 179 -313 5 5 -109 233 -175 350 -50 88 -50 89 -37 130 8 22 38 111
67 197 66 195 60 168 59 279 -2 231 -16 312 -85 497 -56 150 -90 260 -126 398
-25 98 -31 127 -46 213 -2 12 -6 34 -9 50 -3 15 -8 51 -11 80 -7 70 12 70 66
-1 97 -130 218 -177 390 -152 104 15 98 24 -18 24 -105 1 -117 3 -173 31 -112
57 -158 111 -265 311 -94 176 -154 244 -139 157 4 -23 0 -37 -17 -57 -12 -14
-16 -20 -8 -13 23 19 46 14 66 -15 28 -41 27 -271 -1 -403 -3 -14 -7 -34 -9
-45 -3 -11 -9 -42 -15 -70 -18 -88 -20 -96 -25 -113 -3 -9 -8 -30 -11 -47 -6
-34 -85 -347 -144 -570 -22 -82 -42 -165 -45 -182 -3 -18 -8 -46 -11 -62 -9
-51 -16 -116 -31 -271 -10 -109 -21 -193 -30 -222 -3 -9 -7 -27 -10 -40 -28
-125 -67 -223 -219 -553 -125 -270 -175 -403 -219 -575 -21 -85 -27 -113 -42
-200 -9 -47 -15 -60 -30 -60 -13 0 -14 -9 -9 -46 6 -51 22 -84 96 -215 85
-148 119 -247 125 -369 8 -151 8 -149 32 -220 12 -36 23 -87 26 -115 8 -77 16
-123 32 -168 13 -36 13 -43 -1 -56 -14 -14 -19 -12 -51 20 -21 21 -37 47 -37
63 -1 17 -8 26 -19 26 -20 0 -31 29 -44 119 -21 155 -47 213 -140 316 -26 29
-34 34 -29 18 4 -15 -8 -47 -40 -106 -29 -53 -47 -101 -51 -133 -9 -81 -13
-100 -34 -148 -17 -40 -19 -63 -15 -182 3 -101 8 -141 19 -153 8 -9 39 -62 69
-118 30 -56 71 -124 91 -151 69 -95 101 -193 65 -200 -27 -5 -210 196 -294
323 -75 112 -80 124 -82 178 -2 79 -9 144 -28 292 -1 11 -3 30 -4 43 0 12 -7
22 -16 22 -8 0 -16 5 -16 10 -1 6 -2 16 -3 23 -1 6 2 30 7 52 5 22 11 51 13
65 3 14 7 33 10 42 6 20 12 51 20 97 3 18 8 43 10 55 2 11 6 37 9 56 3 19 7
46 10 60 3 14 8 48 11 75 3 28 8 61 10 75 3 14 6 80 9 147 2 74 10 145 20 180
18 60 44 157 50 183 19 84 24 110 29 140 3 19 8 46 11 60 5 24 14 83 20 130 2
14 6 39 9 55 3 17 8 50 11 75 3 25 7 61 10 80 9 66 19 151 29 240 6 56 13 116
22 180 2 19 7 53 9 75 3 22 12 66 20 98 8 32 17 73 20 90 11 65 67 210 148
389 92 202 124 280 131 318 2 14 9 45 14 70 6 25 13 61 16 80 3 19 8 45 10 56
2 12 7 37 10 55 3 19 8 45 11 59 2 13 7 40 10 60 3 20 7 45 9 57 6 30 16 93
21 133 3 19 7 46 10 60 2 13 7 40 10 60 3 20 7 47 10 60 3 14 7 46 10 71 3 25
10 60 15 78 5 17 7 31 5 31 -3 0 0 11 5 25 5 14 12 144 16 288 3 144 10 285
15 313 5 28 12 64 15 80 8 44 53 173 80 225 30 61 116 153 170 185 44 26 117
52 164 59 130 18 170 30 275 83 85 42 175 103 232 155 27 25 48 37 58 33 12
-4 23 8 41 48 23 50 25 67 25 201 1 169 5 175 72 128 62 -45 122 -73 168 -79
22 -3 48 -7 57 -9 23 -3 139 56 182 94 38 33 55 38 62 19z m-2157 -6078 c13
-39 39 -75 110 -151 112 -119 132 -161 73 -146 -33 9 -172 140 -192 180 -21
46 -45 139 -39 155 11 27 32 10 48 -38z m3760 40 c10 -17 -40 -111 -89 -168
-57 -66 -125 -124 -137 -116 -20 12 -6 37 67 121 41 48 87 107 101 131 24 41
45 53 58 32z m-3546 -445 c64 -73 24 -90 -47 -20 -37 37 -42 47 -32 60 15 19
37 8 79 -40z m3371 1 c0 -20 -39 -66 -56 -66 -23 0 -16 32 13 62 26 27 43 29
43 4z"/>
<path d="M4191 13389 c-39 -24 -53 -45 -54 -81 -1 -111 66 -267 151 -353 63
-64 118 -100 209 -137 72 -29 86 -31 187 -29 79 1 112 -2 118 -11 6 -10 12 -8
23 7 27 35 1 132 -72 265 -76 140 -190 253 -323 320 -70 35 -196 45 -239 19z
m256 -100 c55 -27 103 -68 103 -89 0 -4 -8 -18 -18 -30 -17 -21 -21 -22 -58
-10 -96 30 -174 117 -141 158 12 15 32 10 114 -29z"/>
<path d="M5745 13388 c-101 -33 -209 -118 -294 -231 -51 -68 -127 -220 -146
-293 -14 -56 -14 -59 5 -78 19 -19 20 -19 20 -2 0 17 6 18 63 11 124 -16 192
-5 294 45 156 77 277 236 306 403 14 82 4 113 -43 145 -42 28 -116 28 -205 0z
m59 -73 c20 -20 12 -41 -33 -88 -63 -68 -137 -91 -172 -56 -11 11 -19 23 -19
28 0 19 94 91 144 110 63 24 61 24 80 6z"/>
<path d="M4987 12609 c-24 -33 -21 -39 13 -39 33 0 38 15 17 45 -13 17 -15 17
-30 -6z"/>
<path d="M5127 12613 c-4 -3 -7 -15 -7 -25 0 -13 7 -18 25 -18 27 0 33 18 13
38 -14 14 -22 15 -31 5z"/>
<path d="M5119 12356 c-2 -3 -36 -6 -75 -7 -71 -2 -144 -23 -144 -41 0 -6 17
-7 43 -3 23 4 54 6 70 5 49 -2 81 -2 122 0 22 1 55 0 73 -3 17 -2 32 -1 32 3
0 13 -112 55 -121 46z"/>
<path d="M4905 11750 c11 -65 12 -71 23 -115 6 -22 13 -51 16 -65 3 -14 7 -34
10 -45 3 -11 14 -54 25 -95 36 -141 52 -185 73 -203 16 -13 24 -15 34 -6 20
16 17 29 -7 29 -14 0 -25 11 -35 37 -14 33 -66 222 -78 283 -6 28 -8 37 -35
138 -22 85 -37 108 -26 42z"/>
<path d="M5226 11772 c-5 -8 -34 -127 -42 -172 -3 -14 -7 -32 -10 -40 -3 -8
-8 -33 -11 -55 -3 -22 -9 -50 -14 -63 -11 -29 -11 -42 -1 -42 6 0 44 144 58
220 2 8 6 31 10 50 4 19 8 41 10 49 2 8 5 25 9 38 5 23 1 31 -9 15z"/>
<path d="M5666 11363 c-2 -2 -38 -7 -153 -18 -116 -12 -138 -15 -177 -20 -60
-9 -78 -15 -73 -28 2 -7 13 -11 23 -10 10 1 53 4 94 7 41 3 91 8 110 11 19 2
53 6 75 9 44 6 114 17 130 21 6 1 29 6 53 10 69 12 61 26 -13 23 -36 -1 -68
-4 -69 -5z"/>
<path d="M4350 11356 c0 -2 26 -10 58 -17 81 -18 81 -18 142 -25 90 -10 111
-12 217 -19 56 -3 115 -10 132 -15 39 -11 39 -7 2 19 -21 15 -50 23 -103 26
-73 5 -134 10 -238 20 -116 11 -210 16 -210 11z"/>
<path d="M5070 11000 c-1 -52 -4 -104 -6 -115 -6 -26 7 -497 13 -491 11 10 15
652 5 676 -9 20 -11 6 -12 -70z"/>
<path d="M5072 9930 c-8 -53 -23 -815 -23 -1125 1 -478 21 -897 33 -669 10
207 1 1871 -10 1794z"/>
<path d="M6560 9035 c0 -27 -3 -74 -7 -104 -4 -37 -3 -52 4 -48 16 10 27 161
14 184 -8 14 -10 8 -11 -32z"/>
<path d="M3571 8963 c-1 -46 3 -83 8 -83 4 0 6 33 4 73 -6 102 -11 106 -12 10z"/>
<path d="M5655 8328 c-53 -109 -95 -202 -93 -209 2 -6 48 77 102 184 54 107
96 201 93 208 -2 8 -48 -75 -102 -183z"/>
<path d="M5770 5326 c0 -3 4 -15 9 -29 31 -81 34 -292 6 -417 -3 -14 -8 -38
-10 -53 -18 -97 0 -87 39 21 24 67 26 86 25 220 -1 141 -2 149 -30 205 -25 49
-39 68 -39 53z"/>
<path d="M4280 5258 c-20 -46 -24 -73 -26 -193 -3 -123 0 -151 22 -235 32
-119 49 -140 41 -50 -4 36 -8 75 -11 86 -16 75 -19 108 -20 179 0 98 15 233
30 257 3 4 1 8 -4 8 -5 0 -20 -24 -32 -52z"/>
<path d="M4530 4908 c-33 -91 -34 -98 -7 -48 23 42 44 110 34 110 -2 0 -15
-28 -27 -62z"/>
<path d="M5531 4945 c-1 -20 32 -90 51 -110 10 -11 1 14 -30 85 -13 29 -21 38
-21 25z"/>
</g>
</svg>
