<svg width="101" height="98" viewBox="0 0 101 98" fill="none" xmlns="http://www.w3.org/2000/svg">
<path fill-rule="evenodd" clip-rule="evenodd" d="M42.1039 1.47843C40.2929 3.66043 42.5709 4.76444 46.8809 3.79244C48.7799 3.36444 51.9189 3.45443 53.8699 3.99243C57.9229 5.11143 60.2299 4.54343 60.2299 2.42543C60.2299 0.517433 58.1759 0.0284304 50.0399 0.00043036C45.2899 -0.0155696 42.9879 0.413427 42.1039 1.47843ZM25.7909 6.13344C19.6609 9.56544 18.0519 11.4374 20.4429 12.3544C22.0429 12.9684 35.6269 5.81543 35.6889 4.32643C35.7779 2.17343 31.4549 2.96344 25.7909 6.13344ZM66.4669 5.03844C66.9829 6.58444 76.1689 11.7504 78.4799 11.7934C82.1359 11.8624 79.4829 8.46144 73.5299 5.44744C69.7429 3.52944 65.8899 3.30644 66.4669 5.03844ZM84.2719 16.5764C84.3379 19.3854 90.8739 26.1774 92.7999 25.4384C94.3179 24.8554 94.3099 24.5914 92.7059 22.0664C88.5609 15.5414 84.1789 12.6894 84.2719 16.5764ZM9.23588 19.9764C5.95188 24.5104 5.42688 26.8264 7.68388 26.8264C9.43588 26.8264 16.4249 17.9504 15.6539 16.7044C14.4799 14.8044 12.1059 16.0154 9.23588 19.9764ZM46.6749 30.9054C42.7109 32.0434 39.4249 35.6004 38.6199 39.6244C38.0269 42.5894 38.1779 42.8264 40.6569 42.8264C42.7339 42.8264 43.5689 42.1524 44.3819 39.8204C46.0689 34.9814 53.6539 34.2594 55.8729 38.7274C57.4559 41.9154 56.1939 45.0414 51.7499 48.9434C49.0209 51.3394 48.2299 52.7964 48.2299 55.4304C48.2299 58.1734 48.6189 58.8264 50.2549 58.8264C51.4819 58.8264 52.6459 57.8634 53.2089 56.3814C53.7199 55.0374 55.7619 52.4494 57.7459 50.6314C62.2789 46.4764 63.4319 40.6704 60.6569 35.9724C58.0979 31.6394 51.9169 29.3994 46.6749 30.9054ZM94.7859 31.7354C94.4769 32.2354 94.8389 35.0474 95.5899 37.9854C96.5219 41.6324 97.5219 43.4384 98.7419 43.6784C100.323 43.9904 100.456 43.4924 99.8939 39.3884C98.9529 32.5264 96.5359 28.9044 94.7859 31.7354ZM2.20189 33.3594C1.50289 34.2024 0.710916 37.1724 0.442916 39.9594C0.0119158 44.4494 0.162928 44.9864 1.76793 44.6764C3.05493 44.4274 3.93693 42.7364 4.81493 38.8364C5.49493 35.8174 5.83989 33.0044 5.58189 32.5864C4.84789 31.3994 3.59089 31.6864 2.20189 33.3594ZM0.629928 50.9884C-1.15607 53.8784 1.16788 62.8264 3.70488 62.8264C5.43488 62.8264 5.57692 61.0264 4.28392 55.4544C3.20692 50.8134 1.80093 49.0944 0.629928 50.9884ZM96.8549 52.9514C96.5109 54.6704 96.2299 57.3704 96.2299 58.9514C96.2299 62.7134 98.9839 62.8114 99.7709 59.0764C100.09 57.5644 100.518 55.4954 100.722 54.4804C100.926 53.4644 100.851 52.0014 100.555 51.2304C99.6029 48.7514 97.4989 49.7304 96.8549 52.9514ZM47.6139 64.2684C46.5489 67.0434 47.6859 69.3264 50.1349 69.3264C53.2889 69.3264 55.0759 66.5504 53.2999 64.4104C51.6579 62.4324 48.3499 62.3494 47.6139 64.2684ZM90.7719 71.1644C87.7979 76.2394 87.5619 78.1014 89.9529 77.6414C91.6779 77.3094 96.1829 70.4274 96.2139 68.0764C96.2499 65.3264 93.1689 67.0744 90.7719 71.1644ZM5.63292 69.2174C5.03092 70.7864 8.09393 76.6384 10.6089 78.7264C11.6229 79.5674 12.2339 79.5264 13.0349 78.5614C13.8269 77.6064 13.3279 76.1124 11.1089 72.7994C7.73693 67.7644 6.50092 66.9564 5.63292 69.2174ZM77.7299 85.2634C74.6749 87.8664 74.0039 88.9514 74.8899 89.8584C75.7819 90.7714 77.1119 90.3164 80.6399 87.8884C85.3069 84.6774 86.6509 81.8144 83.4799 81.8414C82.5179 81.8494 79.9299 83.3894 77.7299 85.2634ZM17.4139 84.5414C18.0619 87.9064 28.2299 92.9194 28.2299 89.8744C28.2299 88.7304 19.8499 82.8264 18.2269 82.8264C17.5979 82.8264 17.2319 83.5984 17.4139 84.5414ZM61.2299 92.2804C55.7139 93.7684 54.3409 96.8264 59.1889 96.8264C63.3719 96.8264 69.5119 94.1714 68.9849 92.5904C68.4229 90.9014 66.6129 90.8284 61.2299 92.2804ZM33.9729 92.4164C32.0409 94.3494 33.7849 95.4144 41.1509 96.8004C43.5829 97.2574 46.1699 97.4024 46.9009 97.1224C49.5209 96.1174 48.1599 94.0704 44.4799 93.4804C42.4179 93.1504 39.3769 92.6084 37.7229 92.2764C36.0689 91.9454 34.3819 92.0084 33.9729 92.4164Z" fill="#111111"/>
</svg>
